<mxfile host="Electron" agent="Mozilla/5.0 (X11; Linux x86_64) AppleWebKit/537.36 (KHTML, like Gecko) draw.io/25.0.1 Chrome/128.0.6613.186 Electron/32.2.6 Safari/537.36" version="25.0.1">
  <diagram name="Page-1" id="9w_3ujbKpLc1M2opa2av">
    <mxGraphModel dx="880" dy="518" grid="1" gridSize="10" guides="1" tooltips="1" connect="1" arrows="1" fold="1" page="1" pageScale="1" pageWidth="827" pageHeight="1169" math="0" shadow="0">
      <root>
        <mxCell id="0" />
        <mxCell id="1" parent="0" />
        <mxCell id="Ud9RnY4P_eme2ktONrcu-2" value="Verwaltung" style="shape=umlFrame;whiteSpace=wrap;html=1;pointerEvents=0;width=70;height=30;" parent="1" vertex="1">
          <mxGeometry x="311" y="40" width="209" height="1120" as="geometry" />
        </mxCell>
        <mxCell id="Ud9RnY4P_eme2ktONrcu-15" value="no" style="edgeStyle=orthogonalEdgeStyle;html=1;align=left;verticalAlign=bottom;endArrow=open;endSize=8;strokeColor=#ff0000;rounded=0;exitX=1;exitY=0.5;exitDx=0;exitDy=0;entryX=0;entryY=0.5;entryDx=0;entryDy=0;" parent="1" source="Ud9RnY4P_eme2ktONrcu-13" target="Ud9RnY4P_eme2ktONrcu-29" edge="1">
          <mxGeometry x="-1" relative="1" as="geometry">
            <mxPoint x="354" y="245" as="targetPoint" />
            <Array as="points" />
            <mxPoint x="322.5" y="264.75" as="sourcePoint" />
          </mxGeometry>
        </mxCell>
        <mxCell id="Ud9RnY4P_eme2ktONrcu-23" value="no" style="edgeStyle=orthogonalEdgeStyle;html=1;align=left;verticalAlign=bottom;endArrow=open;endSize=8;strokeColor=#ff0000;rounded=0;exitX=1;exitY=0.5;exitDx=0;exitDy=0;entryX=0;entryY=0.5;entryDx=0;entryDy=0;" parent="1" source="nDPM8hH2_OgcgWuhqqHi-10" target="nDPM8hH2_OgcgWuhqqHi-35" edge="1">
          <mxGeometry x="-1" relative="1" as="geometry">
            <mxPoint x="570" y="275" as="targetPoint" />
            <Array as="points" />
            <mxPoint x="320" y="275" as="sourcePoint" />
          </mxGeometry>
        </mxCell>
        <mxCell id="Ud9RnY4P_eme2ktONrcu-26" value="Personalabteilung" style="shape=umlFrame;whiteSpace=wrap;html=1;pointerEvents=0;width=110;height=30;" parent="1" vertex="1">
          <mxGeometry x="549" y="40" width="211" height="1120" as="geometry" />
        </mxCell>
        <mxCell id="Ud9RnY4P_eme2ktONrcu-1" value="Stationsleiter" style="shape=umlFrame;whiteSpace=wrap;html=1;pointerEvents=0;width=80;height=30;" parent="1" vertex="1">
          <mxGeometry x="70" y="40" width="211" height="1120" as="geometry" />
        </mxCell>
        <mxCell id="Ud9RnY4P_eme2ktONrcu-31" value="yes" style="edgeStyle=orthogonalEdgeStyle;html=1;align=left;verticalAlign=top;endArrow=open;endSize=8;strokeColor=#ff0000;rounded=0;exitX=0.5;exitY=1;exitDx=0;exitDy=0;entryX=0.5;entryY=0;entryDx=0;entryDy=0;" parent="1" source="Ud9RnY4P_eme2ktONrcu-30" target="Ud9RnY4P_eme2ktONrcu-33" edge="1">
          <mxGeometry x="-1" y="9" relative="1" as="geometry">
            <mxPoint x="413.79" y="570" as="targetPoint" />
            <mxPoint x="413.79" y="540" as="sourcePoint" />
            <Array as="points">
              <mxPoint x="401" y="690" />
              <mxPoint x="176" y="690" />
            </Array>
            <mxPoint as="offset" />
          </mxGeometry>
        </mxCell>
        <mxCell id="Ud9RnY4P_eme2ktONrcu-48" value="" style="edgeStyle=orthogonalEdgeStyle;html=1;verticalAlign=bottom;endArrow=open;endSize=8;strokeColor=#ff0000;rounded=0;exitX=0.5;exitY=1;exitDx=0;exitDy=0;entryX=0;entryY=0.5;entryDx=0;entryDy=0;" parent="1" source="Ud9RnY4P_eme2ktONrcu-33" target="Ud9RnY4P_eme2ktONrcu-38" edge="1">
          <mxGeometry relative="1" as="geometry">
            <mxPoint x="410" y="740" as="targetPoint" />
            <mxPoint x="410" y="715" as="sourcePoint" />
            <Array as="points">
              <mxPoint x="176" y="770" />
            </Array>
          </mxGeometry>
        </mxCell>
        <mxCell id="Ud9RnY4P_eme2ktONrcu-56" value="no" style="edgeStyle=orthogonalEdgeStyle;html=1;align=left;verticalAlign=bottom;endArrow=open;endSize=8;strokeColor=#ff0000;rounded=0;exitX=1;exitY=0.5;exitDx=0;exitDy=0;entryX=0.5;entryY=0;entryDx=0;entryDy=0;" parent="1" source="Ud9RnY4P_eme2ktONrcu-39" target="Ud9RnY4P_eme2ktONrcu-44" edge="1">
          <mxGeometry x="-1" relative="1" as="geometry">
            <mxPoint x="159.9999999999999" y="1020" as="targetPoint" />
            <Array as="points">
              <mxPoint x="740" y="855" />
              <mxPoint x="740" y="990" />
              <mxPoint x="176" y="990" />
              <mxPoint x="176" y="1020" />
            </Array>
            <mxPoint x="780" y="865" as="sourcePoint" />
          </mxGeometry>
        </mxCell>
        <mxCell id="7dSmb0a8KmJFxkWQPUef-2" value="" style="group" vertex="1" connectable="0" parent="1">
          <mxGeometry x="341" y="230" width="146" height="300" as="geometry" />
        </mxCell>
        <mxCell id="nDPM8hH2_OgcgWuhqqHi-35" value="Auslastungs-&lt;div&gt;prognose generieren&lt;/div&gt;" style="rounded=1;whiteSpace=wrap;html=1;arcSize=40;fontColor=#000000;fillColor=#ffffc0;strokeColor=#ff0000;" parent="7dSmb0a8KmJFxkWQPUef-2" vertex="1">
          <mxGeometry y="155" width="120" height="40" as="geometry" />
        </mxCell>
        <mxCell id="Ud9RnY4P_eme2ktONrcu-29" value="" style="ellipse;html=1;shape=endState;fillColor=#000000;strokeColor=#ff0000;" parent="7dSmb0a8KmJFxkWQPUef-2" vertex="1">
          <mxGeometry x="45" width="30" height="30" as="geometry" />
        </mxCell>
        <mxCell id="Ud9RnY4P_eme2ktONrcu-30" value="&lt;span style=&quot;font-size: 10px;&quot;&gt;Änderung notwendig?&lt;/span&gt;" style="rhombus;whiteSpace=wrap;html=1;fontColor=#000000;fillColor=#ffffc0;strokeColor=#ff0000;container=0;" parent="7dSmb0a8KmJFxkWQPUef-2" vertex="1">
          <mxGeometry y="230" width="120" height="70" as="geometry" />
        </mxCell>
        <mxCell id="Ud9RnY4P_eme2ktONrcu-32" value="" style="edgeStyle=orthogonalEdgeStyle;html=1;verticalAlign=bottom;endArrow=open;endSize=8;strokeColor=#ff0000;rounded=0;exitX=0.5;exitY=1;exitDx=0;exitDy=0;entryX=0.5;entryY=0;entryDx=0;entryDy=0;" parent="7dSmb0a8KmJFxkWQPUef-2" source="nDPM8hH2_OgcgWuhqqHi-35" target="Ud9RnY4P_eme2ktONrcu-30" edge="1">
          <mxGeometry relative="1" as="geometry">
            <mxPoint x="59.629999999999995" y="220" as="targetPoint" />
            <mxPoint x="59.629999999999995" y="195" as="sourcePoint" />
          </mxGeometry>
        </mxCell>
        <mxCell id="Ud9RnY4P_eme2ktONrcu-36" value="no" style="edgeStyle=orthogonalEdgeStyle;html=1;align=left;verticalAlign=bottom;endArrow=open;endSize=8;strokeColor=#ff0000;rounded=0;exitX=1;exitY=0.5;exitDx=0;exitDy=0;entryX=1;entryY=0.5;entryDx=0;entryDy=0;" parent="7dSmb0a8KmJFxkWQPUef-2" source="Ud9RnY4P_eme2ktONrcu-30" target="Ud9RnY4P_eme2ktONrcu-29" edge="1">
          <mxGeometry x="-1" relative="1" as="geometry">
            <mxPoint x="196" y="390.70175438596493" as="targetPoint" />
            <Array as="points">
              <mxPoint x="146" y="265" />
              <mxPoint x="146" y="15" />
            </Array>
            <mxPoint x="146" y="264.69" as="sourcePoint" />
          </mxGeometry>
        </mxCell>
        <mxCell id="7dSmb0a8KmJFxkWQPUef-3" value="" style="group" vertex="1" connectable="0" parent="1">
          <mxGeometry x="594.5" y="750" width="120" height="200" as="geometry" />
        </mxCell>
        <mxCell id="Ud9RnY4P_eme2ktONrcu-38" value="Personalverfügbarkeit&lt;div&gt;überprüfen&lt;/div&gt;" style="rounded=1;whiteSpace=wrap;html=1;arcSize=40;fontColor=#000000;fillColor=#ffffc0;strokeColor=#ff0000;" parent="7dSmb0a8KmJFxkWQPUef-3" vertex="1">
          <mxGeometry width="120" height="40" as="geometry" />
        </mxCell>
        <mxCell id="Ud9RnY4P_eme2ktONrcu-39" value="&lt;span style=&quot;font-size: 10px;&quot;&gt;Personal verfügbar?&lt;/span&gt;" style="rhombus;whiteSpace=wrap;html=1;fontColor=#000000;fillColor=#ffffc0;strokeColor=#ff0000;container=0;" parent="7dSmb0a8KmJFxkWQPUef-3" vertex="1">
          <mxGeometry y="70" width="120" height="70" as="geometry" />
        </mxCell>
        <mxCell id="Ud9RnY4P_eme2ktONrcu-40" value="yes" style="edgeStyle=orthogonalEdgeStyle;html=1;align=left;verticalAlign=top;endArrow=open;endSize=8;strokeColor=#ff0000;rounded=0;exitX=0.5;exitY=1;exitDx=0;exitDy=0;entryX=0.5;entryY=0;entryDx=0;entryDy=0;" parent="7dSmb0a8KmJFxkWQPUef-3" source="Ud9RnY4P_eme2ktONrcu-39" target="Ud9RnY4P_eme2ktONrcu-41" edge="1">
          <mxGeometry x="-1" relative="1" as="geometry">
            <mxPoint x="59.60000000000002" y="180" as="targetPoint" />
            <mxPoint x="59.60000000000002" y="150" as="sourcePoint" />
          </mxGeometry>
        </mxCell>
        <mxCell id="Ud9RnY4P_eme2ktONrcu-41" value="" style="ellipse;html=1;shape=endState;fillColor=#000000;strokeColor=#ff0000;" parent="7dSmb0a8KmJFxkWQPUef-3" vertex="1">
          <mxGeometry x="45" y="170" width="30" height="30" as="geometry" />
        </mxCell>
        <mxCell id="Ud9RnY4P_eme2ktONrcu-47" value="" style="edgeStyle=orthogonalEdgeStyle;html=1;verticalAlign=bottom;endArrow=open;endSize=8;strokeColor=#ff0000;rounded=0;exitX=0.5;exitY=1;exitDx=0;exitDy=0;entryX=0.5;entryY=0;entryDx=0;entryDy=0;" parent="7dSmb0a8KmJFxkWQPUef-3" source="Ud9RnY4P_eme2ktONrcu-38" target="Ud9RnY4P_eme2ktONrcu-39" edge="1">
          <mxGeometry relative="1" as="geometry">
            <mxPoint x="59.620000000000005" y="55" as="targetPoint" />
            <mxPoint x="59.620000000000005" y="30" as="sourcePoint" />
          </mxGeometry>
        </mxCell>
        <mxCell id="nDPM8hH2_OgcgWuhqqHi-1" value="" style="ellipse;html=1;shape=startState;fillColor=#000000;strokeColor=#ff0000;" parent="1" vertex="1">
          <mxGeometry x="160.5" y="80" width="30" height="30" as="geometry" />
        </mxCell>
        <mxCell id="nDPM8hH2_OgcgWuhqqHi-5" value="" style="edgeStyle=orthogonalEdgeStyle;html=1;verticalAlign=bottom;endArrow=open;endSize=8;strokeColor=#ff0000;rounded=0;exitX=0.5;exitY=1;exitDx=0;exitDy=0;entryX=0.5;entryY=0;entryDx=0;entryDy=0;" parent="1" source="nDPM8hH2_OgcgWuhqqHi-1" target="Ud9RnY4P_eme2ktONrcu-4" edge="1">
          <mxGeometry relative="1" as="geometry">
            <mxPoint x="175.5" y="140" as="targetPoint" />
            <mxPoint x="175.5" y="180" as="sourcePoint" />
          </mxGeometry>
        </mxCell>
        <mxCell id="Ud9RnY4P_eme2ktONrcu-4" value="Personalbedarf ermitteln" style="rounded=1;whiteSpace=wrap;html=1;arcSize=40;fontColor=#000000;fillColor=#ffffc0;strokeColor=#ff0000;" parent="1" vertex="1">
          <mxGeometry x="115.5" y="140" width="120" height="40" as="geometry" />
        </mxCell>
        <mxCell id="Ud9RnY4P_eme2ktONrcu-9" value="" style="edgeStyle=orthogonalEdgeStyle;html=1;verticalAlign=bottom;endArrow=open;endSize=8;strokeColor=#ff0000;rounded=0;exitX=0.5;exitY=1;exitDx=0;exitDy=0;entryX=0.5;entryY=0;entryDx=0;entryDy=0;" parent="1" source="Ud9RnY4P_eme2ktONrcu-4" target="Ud9RnY4P_eme2ktONrcu-13" edge="1">
          <mxGeometry relative="1" as="geometry">
            <mxPoint x="175.5" y="210" as="targetPoint" />
            <mxPoint x="185.5" y="120" as="sourcePoint" />
          </mxGeometry>
        </mxCell>
        <mxCell id="Ud9RnY4P_eme2ktONrcu-13" value="&lt;span style=&quot;font-size: 10px;&quot;&gt;Personalbedarf&lt;/span&gt;&lt;div&gt;&lt;span style=&quot;font-size: 10px;&quot;&gt;schwankt?&lt;/span&gt;&lt;/div&gt;" style="rhombus;whiteSpace=wrap;html=1;fontColor=#000000;fillColor=#ffffc0;strokeColor=#ff0000;container=0;" parent="1" vertex="1">
          <mxGeometry x="115.5" y="210" width="120" height="70" as="geometry" />
        </mxCell>
        <mxCell id="nDPM8hH2_OgcgWuhqqHi-10" value="&lt;span style=&quot;font-size: 10px;&quot;&gt;Notfall-Reaktion notwendig?&lt;/span&gt;" style="rhombus;whiteSpace=wrap;html=1;fontColor=#000000;fillColor=#ffffc0;strokeColor=#ff0000;container=0;" parent="1" vertex="1">
          <mxGeometry x="115.5" y="370" width="120" height="70" as="geometry" />
        </mxCell>
        <mxCell id="Ud9RnY4P_eme2ktONrcu-16" value="yes" style="edgeStyle=orthogonalEdgeStyle;html=1;align=left;verticalAlign=top;endArrow=open;endSize=8;strokeColor=#ff0000;rounded=0;exitX=0.5;exitY=1;exitDx=0;exitDy=0;entryX=0.5;entryY=0;entryDx=0;entryDy=0;" parent="1" source="Ud9RnY4P_eme2ktONrcu-13" target="Ud9RnY4P_eme2ktONrcu-17" edge="1">
          <mxGeometry x="-1" relative="1" as="geometry">
            <mxPoint x="175.25" y="365" as="targetPoint" />
            <mxPoint x="175.25" y="340" as="sourcePoint" />
          </mxGeometry>
        </mxCell>
        <mxCell id="Ud9RnY4P_eme2ktONrcu-17" value="Ausmaß überprüfen" style="rounded=1;whiteSpace=wrap;html=1;arcSize=40;fontColor=#000000;fillColor=#ffffc0;strokeColor=#ff0000;container=0;" parent="1" vertex="1">
          <mxGeometry x="115.5" y="305" width="120" height="40" as="geometry" />
        </mxCell>
        <mxCell id="Ud9RnY4P_eme2ktONrcu-19" value="" style="edgeStyle=orthogonalEdgeStyle;html=1;verticalAlign=bottom;endArrow=open;endSize=8;strokeColor=#ff0000;rounded=0;exitX=0.5;exitY=1;exitDx=0;exitDy=0;entryX=0.5;entryY=0;entryDx=0;entryDy=0;" parent="1" source="Ud9RnY4P_eme2ktONrcu-17" target="nDPM8hH2_OgcgWuhqqHi-10" edge="1">
          <mxGeometry relative="1" as="geometry">
            <mxPoint x="255.5" y="460" as="targetPoint" />
            <mxPoint x="255.5" y="420" as="sourcePoint" />
          </mxGeometry>
        </mxCell>
        <mxCell id="Ud9RnY4P_eme2ktONrcu-24" value="yes" style="edgeStyle=orthogonalEdgeStyle;html=1;align=left;verticalAlign=top;endArrow=open;endSize=8;strokeColor=#ff0000;rounded=0;exitX=0.5;exitY=1;exitDx=0;exitDy=0;entryX=0.5;entryY=0;entryDx=0;entryDy=0;" parent="1" source="nDPM8hH2_OgcgWuhqqHi-10" target="nDPM8hH2_OgcgWuhqqHi-30" edge="1">
          <mxGeometry x="-1" relative="1" as="geometry">
            <mxPoint x="185.5" y="390" as="targetPoint" />
            <mxPoint x="185.5" y="330" as="sourcePoint" />
          </mxGeometry>
        </mxCell>
        <mxCell id="nDPM8hH2_OgcgWuhqqHi-30" value="Notfallpläne&amp;nbsp;&lt;div&gt;aktivieren&lt;/div&gt;" style="rounded=1;whiteSpace=wrap;html=1;arcSize=40;fontColor=#000000;fillColor=#ffffc0;strokeColor=#ff0000;container=0;" parent="1" vertex="1">
          <mxGeometry x="115.5" y="470" width="120" height="40" as="geometry" />
        </mxCell>
        <mxCell id="Ud9RnY4P_eme2ktONrcu-3" value="Umdisponieren" style="rounded=1;whiteSpace=wrap;html=1;arcSize=40;fontColor=#000000;fillColor=#ffffc0;strokeColor=#ff0000;container=0;" parent="1" vertex="1">
          <mxGeometry x="115.5" y="540" width="120" height="40" as="geometry" />
        </mxCell>
        <mxCell id="Ud9RnY4P_eme2ktONrcu-10" value="Meldungen versenden" style="rounded=1;whiteSpace=wrap;html=1;arcSize=40;fontColor=#000000;fillColor=#ffffc0;strokeColor=#ff0000;container=0;" parent="1" vertex="1">
          <mxGeometry x="115.5" y="610" width="120" height="40" as="geometry" />
        </mxCell>
        <mxCell id="Ud9RnY4P_eme2ktONrcu-33" value="Schichtpläne&amp;nbsp;&lt;div&gt;erstellen&lt;/div&gt;" style="rounded=1;whiteSpace=wrap;html=1;arcSize=40;fontColor=#000000;fillColor=#ffffc0;strokeColor=#ff0000;" parent="1" vertex="1">
          <mxGeometry x="115.5" y="710" width="120" height="40" as="geometry" />
        </mxCell>
        <mxCell id="Ud9RnY4P_eme2ktONrcu-49" value="" style="edgeStyle=orthogonalEdgeStyle;html=1;verticalAlign=bottom;endArrow=open;endSize=8;strokeColor=#ff0000;rounded=0;exitX=0.5;exitY=1;exitDx=0;exitDy=0;entryX=0.5;entryY=0;entryDx=0;entryDy=0;" parent="1" source="nDPM8hH2_OgcgWuhqqHi-30" target="Ud9RnY4P_eme2ktONrcu-3" edge="1">
          <mxGeometry relative="1" as="geometry">
            <mxPoint x="175.28" y="540" as="targetPoint" />
            <mxPoint x="175.28" y="515" as="sourcePoint" />
          </mxGeometry>
        </mxCell>
        <mxCell id="Ud9RnY4P_eme2ktONrcu-50" value="" style="edgeStyle=orthogonalEdgeStyle;html=1;verticalAlign=bottom;endArrow=open;endSize=8;strokeColor=#ff0000;rounded=0;exitX=0.5;exitY=1;exitDx=0;exitDy=0;entryX=0.5;entryY=0;entryDx=0;entryDy=0;" parent="1" source="Ud9RnY4P_eme2ktONrcu-3" target="Ud9RnY4P_eme2ktONrcu-10" edge="1">
          <mxGeometry relative="1" as="geometry">
            <mxPoint x="175.28" y="605" as="targetPoint" />
            <mxPoint x="175.28" y="580" as="sourcePoint" />
          </mxGeometry>
        </mxCell>
        <mxCell id="Ud9RnY4P_eme2ktONrcu-55" value="" style="group" parent="1" vertex="1" connectable="0">
          <mxGeometry x="115.5" y="1020" width="135" height="100" as="geometry" />
        </mxCell>
        <mxCell id="Ud9RnY4P_eme2ktONrcu-44" value="Schichtpläne&amp;nbsp;&lt;div&gt;anpassen&lt;/div&gt;" style="rounded=1;whiteSpace=wrap;html=1;arcSize=40;fontColor=#000000;fillColor=#ffffc0;strokeColor=#ff0000;" parent="Ud9RnY4P_eme2ktONrcu-55" vertex="1">
          <mxGeometry width="120" height="40" as="geometry" />
        </mxCell>
        <mxCell id="Ud9RnY4P_eme2ktONrcu-45" value="" style="ellipse;html=1;shape=endState;fillColor=#000000;strokeColor=#ff0000;" parent="Ud9RnY4P_eme2ktONrcu-55" vertex="1">
          <mxGeometry x="45" y="70" width="30" height="30" as="geometry" />
        </mxCell>
        <mxCell id="Ud9RnY4P_eme2ktONrcu-46" value="" style="edgeStyle=orthogonalEdgeStyle;html=1;verticalAlign=bottom;endArrow=open;endSize=8;strokeColor=#ff0000;rounded=0;exitX=0.5;exitY=1;exitDx=0;exitDy=0;entryX=0.5;entryY=0;entryDx=0;entryDy=0;" parent="Ud9RnY4P_eme2ktONrcu-55" source="Ud9RnY4P_eme2ktONrcu-44" target="Ud9RnY4P_eme2ktONrcu-45" edge="1">
          <mxGeometry relative="1" as="geometry">
            <mxPoint x="59.620000000000005" y="75" as="targetPoint" />
            <mxPoint x="59.620000000000005" y="50" as="sourcePoint" />
          </mxGeometry>
        </mxCell>
        <mxCell id="7dSmb0a8KmJFxkWQPUef-5" value="Schichtpläne&lt;div&gt;gelten&lt;/div&gt;" style="text;html=1;align=center;verticalAlign=middle;whiteSpace=wrap;rounded=0;" vertex="1" parent="Ud9RnY4P_eme2ktONrcu-55">
          <mxGeometry x="84.5" y="70" width="60" height="30" as="geometry" />
        </mxCell>
        <mxCell id="7dSmb0a8KmJFxkWQPUef-4" value="" style="edgeStyle=orthogonalEdgeStyle;html=1;verticalAlign=bottom;endArrow=open;endSize=8;strokeColor=#ff0000;rounded=0;exitX=0.5;exitY=1;exitDx=0;exitDy=0;entryX=0;entryY=0.5;entryDx=0;entryDy=0;" edge="1" parent="1" source="Ud9RnY4P_eme2ktONrcu-10" target="Ud9RnY4P_eme2ktONrcu-45">
          <mxGeometry relative="1" as="geometry">
            <mxPoint x="175.02" y="690" as="targetPoint" />
            <mxPoint x="175.02" y="660" as="sourcePoint" />
            <Array as="points">
              <mxPoint x="176" y="670" />
              <mxPoint x="90" y="670" />
              <mxPoint x="90" y="1105" />
            </Array>
          </mxGeometry>
        </mxCell>
        <mxCell id="7dSmb0a8KmJFxkWQPUef-6" value="Schichtpläne&lt;div&gt;gelten&lt;/div&gt;" style="text;html=1;align=center;verticalAlign=middle;whiteSpace=wrap;rounded=0;" vertex="1" parent="1">
          <mxGeometry x="570" y="920" width="60" height="30" as="geometry" />
        </mxCell>
        <mxCell id="7dSmb0a8KmJFxkWQPUef-7" value="Schichtpläne&lt;div&gt;gelten&lt;/div&gt;" style="text;html=1;align=center;verticalAlign=middle;whiteSpace=wrap;rounded=0;" vertex="1" parent="1">
          <mxGeometry x="370" y="200" width="60" height="30" as="geometry" />
        </mxCell>
      </root>
    </mxGraphModel>
  </diagram>
</mxfile>
